<svg xmlns="http://www.w3.org/2000/svg" viewBox="0 0 360 360" width="360" height="360">
  <rect width="360" height="360" rx="24" fill="#F8FAFC"/>
  <g>
    <ellipse cx="180" cy="166" rx="138" ry="165" fill="#5A433C"/>
    <path d="M72 128 Q180 52 288 128 L288 148 Q180 114 72 148 Z" fill="#5A433C"/>
    <rect x="76" y="145" width="24" height="98" rx="6" fill="#5A433C"/>
    <rect x="260" y="145" width="24" height="98" rx="6" fill="#5A433C"/>
  </g>
  <rect x="150" y="286" width="60" height="42" rx="12" fill="#F7D9CC"/>
  <ellipse cx="180" cy="184" rx="108" ry="140" fill="#F7D9CC"/>
  <g fill="none" stroke="#5D463C" stroke-width="3.5" stroke-linecap="round">
    <path d="M121 152 L151 148"/>
    <path d="M209 148 L239 152"/>
  </g>
  <g fill="#2F2F2F">
    <circle cx="142" cy="174" r="6.5"/>
    <circle cx="218" cy="174" r="6.5"/>
  </g>
  <path d="M180 183 L172 210 L188 210 Z" fill="#E7B6A5"/>
  <path d="M160 235 Q180 253 200 235" fill="none" stroke="#C26B80" stroke-width="3.5" stroke-linecap="round"/>
  <ellipse cx="125" cy="205" rx="18" ry="13" fill="#F3A0B2" opacity="0.32"/>
  <ellipse cx="235" cy="205" rx="18" ry="13" fill="#F3A0B2" opacity="0.32"/>
</svg>
