<svg xmlns="http://www.w3.org/2000/svg" viewBox="0 0 360 360" width="360" height="360">
  <rect width="360" height="360" rx="24" fill="#F8FAFC"/>
  <g>
    <ellipse cx="180" cy="102" rx="118" ry="84" fill="#4B372F"/>
    <path d="M88 126 Q180 72 272 126 L272 146 Q180 122 88 146 Z" fill="#4B372F"/>
    <rect x="92" y="142" width="16" height="40" rx="4" fill="#4B372F"/>
    <rect x="252" y="142" width="16" height="40" rx="4" fill="#4B372F"/>
  </g>
  <rect x="150" y="286" width="60" height="42" rx="12" fill="#EFCFBF"/>
  <ellipse cx="180" cy="186" rx="108" ry="140" fill="#EFCFBF"/>
  <g fill="none" stroke="#5D463C" stroke-width="3.5" stroke-linecap="round">
    <path d="M121 150 L151 146"/>
    <path d="M209 146 L239 150"/>
  </g>
  <g fill="#2F2F2F">
    <circle cx="142" cy="174" r="6.5"/>
    <circle cx="218" cy="174" r="6.5"/>
  </g>
  <path d="M180 183 L172 210 L188 210 Z" fill="#E2B4A2"/>
  <path d="M160 236 Q180 256 200 236" fill="none" stroke="#965A58" stroke-width="3.5" stroke-linecap="round"/>
  <ellipse cx="124" cy="206" rx="18" ry="13" fill="#F7B6B6" opacity="0.18"/>
  <ellipse cx="236" cy="206" rx="18" ry="13" fill="#F7B6B6" opacity="0.18"/>
</svg>
